<svg xmlns="http://www.w3.org/2000/svg" viewBox="0 0 512 512" fill="#F97316">
  <path d="M256,0C114.84,0,0,114.84,0,256S114.84,512,256,512,512,397.16,512,256,397.16,0,256,0ZM405.31,323.73c-11.09,34.58-40.42,51.95-75.56,58.1-13.57,2.4-27.45,2.62-39.54-5.3-9.58-6.43-14.66-16.86-19.42-27.07-3.31-7.05-4.29-15.42-1.86-23.07,4.53-13.64,19.42-15.39,30.84-17.37,4.59-.77,8.85-2.84,11.31-7.12,2.82-5.08.8-9.36-3.94-12.61-4.15-2.84-8.85-4.15-13.46-5.3-11.31-2.4-23.07-2.73-34.38-5-16.41-3.39-32.82-9.35-48.23-16.75a95.09,95.09,0,0,1-35.93-31.61c-8.31-12.07-8.63-26.29-7.27-40.09,2.62-25.55,16.42-46.16,35.71-62.25,17.7-14.75,39.21-22.27,61.47-26.51,15.32-2.95,30.51-3.61,45.39,1.31,25.11,8.41,32.6,31.93,27.08,54.58-4.48,18.33-17.16,30.74-33.57,38.68-17.7,8.52-36.8,10.92-56,10.48-8.2-.22-16.32-1.09-22.16-7.48-5.63-6.1-5.73-14.42-2.26-21.54,3.06-6.32,8.41-9.92,15.2-11.35,5.41-1.2,10.38,0,15.42,2.62,2.95,1.53,5.08,4.15,5.3,7.59.22,3.5-1.64,5.68-4.37,7.48a14.83,14.83,0,0,1-4.15,1.64c-3.07.87-6.1,1.42-8.41,3.94-3.72,4.15-1.64,9.8,2.94,11.75,10.7,4.37,22.06,3.28,32.88.76a43.39,43.39,0,0,0,10.81-3.83c9.58-5.08,17.05-12.39,19.11-23.51,2.19-11.64-1.86-21.32-12.17-27.65-12.17-7.48-25.77-8.19-39.33-7.27-22.81,1.64-42.34,11.09-57.1,28.9-9.24,11.2-13.17,24.47-14.7,38.57-1.31,12.83,0,25.55,7.7,36.58,15.3,22.17,37.35,33.9,63.12,39,16.42,3.17,33.16,3.72,49.91,5,9.8.77,19.39,2.18,28.13,6.65,11.75,6,18.87,15.53,19.55,28.8.54,10.92-1.87,21.33-5.3,31.6ZM344.16,198c.33,21.87-17.7,40.2-39.22,39.33-10.46-.44-19.33-4.59-26.72-11.86-1.41-1.42-3.06-1.86-4.92-1.09-9.68,4.15-17.48,12.72-15.39,26,1.69,10.59,6.11,19.94,11.31,28.9,3.61,6.22,7.92,12,12.29,17.7,1.86,2.4,1.31,3.27-1.09,4.7-2.95,1.75-5.9,3.5-8.85,5.08-2.3,1.31-3.5,1.09-5.08-1.09-3.83-5.19-7.48-10.37-10.7-15.86-1.53-2.62-2.51-2.84-4.92-1.31-4.92,3.28-9.91,6.43-14.86,9.59-1.65,1.09-2.19,2.18-1.65,4.15,1.2,4.15,2.07,8.42,2.4,12.72.31,4.16-1.64,6.43-5.3,6.65s-6.1-2.07-6.54-6c-1.31-11.86-4.81-23.07-10.91-33.38-.87-1.41-.33-2.18.54-3.27a145.32,145.32,0,0,0,18.66-29.12c8.41-17.49,13.17-36,12.29-55.8-1.53-36.25-24.16-60.6-52.89-75.24-4.14-2.18-8.52-3.93-12.94-5.52-3.71-1.31-5.68-4.7-4.7-8a7.23,7.23,0,0,1,7.38-5.13c16.31.87,31.16,6.11,45,14.42,15.42,9.36,26.61,22.6,30.83,40.53a82.26,82.26,0,0,1,2.18,20.46c-.11,2.62.54,3.83,3.28,4.91a99.78,99.78,0,0,0,25.88,7.05c8.41,1.31,16.31-1.64,23.94-5.3a7.91,7.91,0,0,0,4.59-8.09c-1-13.35-7-24.46-15.75-34.27-14.1-15.86-32.17-26.39-52.13-33.82-28.14-10.48-56.94-15.09-87-12.4C116.69,83.9,83.67,94.59,56.27,118.1c-20.9,17.92-33.39,40.85-35.6,68.76-2.3,28.46,7.92,52.94,27.45,74,14.42,15.42,32.38,25.77,51.91,33.38,6,2.3,12.18,4.16,18.33,6a6.17,6.17,0,0,1,4.59,8c-1.31,3.61-4.92,5.08-9.14,3.61-9.8-3.39-19.22-7.49-28.36-12.4C65.11,287.8,49.37,273.16,38,253.88c-7.81-13.35-13.24-27.43-14.1-43-2.29-38.79,11.2-70.72,39.66-96.48C91.1,90.88,123.27,76.11,159.3,69.36c35.49-6.54,70.53-4.59,104.87,7.59,36.35,12.94,64.26,36.58,82.74,70.4C355.8,164.54,358.42,183.53,344.16,198Z"/>
</svg>